# xmcd
#
# Track frame offsets:
#        150
#        18708
#        40025
#        59798
#        79337
#        102914
#        121641
#        141817
#        159035
#        182507
#
# Disc length: 2803 seconds
#
# Revision: 0
# Processed by: cddbd v1.5.1PL0 Copyright (c) Steve Scherf et al.
# Submitted via: ExactAudioCopy v0.95a5
#
DISCID=7a0af10a
DTITLE=dream - 777 -Best of dreams-
DYEAR=2004
DGENRE=JPop
TTITLE0=Movin' on
TTITLE1=Heart on Wave
TTITLE2=Private wars
TTITLE3=reality
TTITLE4=My will
TTITLE5=Believe in you
TTITLE6=solve
TTITLE7=Our Time
TTITLE8=Get Over
TTITLE9=Yourself
EXTD=
EXTT0=
EXTT1=
EXTT2=
EXTT3=
EXTT4=
EXTT5=
EXTT6=
EXTT7=
EXTT8=
EXTT9=
PLAYORDER=
